<svg width="32" height="32" viewBox="0 0 32 32" fill="none" xmlns="http://www.w3.org/2000/svg">
<path d="M10.6667 5.25331C12.6441 4.27018 14.8544 3.85175 17.0542 4.04408C19.2541 4.23641 21.3583 5.03205 23.1351 6.3434C24.9118 7.65474 26.2923 9.43093 27.1244 11.4764C27.9566 13.5219 28.2082 15.7573 27.8515 17.9366C27.4949 20.1159 26.5438 22.1545 25.103 23.828C23.6621 25.5015 21.7875 26.745 19.6854 27.4215C17.5833 28.098 15.3353 28.1814 13.1888 27.6624C11.0424 27.1434 9.08082 26.0422 7.52003 24.48C6.25082 23.2199 5.2843 21.688 4.69336 20" stroke="black" stroke-width="2" stroke-linecap="round" stroke-linejoin="round"/>
<path d="M11.3867 17.3333C11.8549 18.1443 12.5284 18.8177 13.3394 19.2858C14.1504 19.7539 15.0704 20.0002 16.0068 20C16.9433 19.9997 17.8631 19.753 18.6739 19.2844C19.4847 18.8159 20.1578 18.1422 20.6256 17.331C21.0934 16.5197 21.3394 15.5997 21.3388 14.6632C21.3382 13.7268 21.091 12.807 20.6222 11.9964C20.1534 11.1858 19.4794 10.5129 18.668 10.0455C17.8566 9.57798 16.9364 9.33236 16 9.33332C15.5497 9.3293 15.101 9.38764 14.6667 9.50666" stroke="black" stroke-width="2" stroke-linecap="round" stroke-linejoin="round"/>
<path d="M4 12H9.33333M6.66667 14.6666V9.33331M9.33333 26C11.2983 27.3015 13.6031 27.9956 15.96 27.9956C18.3169 27.9956 20.6217 27.3015 22.5867 26C22.4071 24.368 21.6316 22.8596 20.4088 21.764C19.186 20.6684 17.6019 20.0625 15.96 20.0625C14.3181 20.0625 12.734 20.6684 11.5112 21.764C10.2884 22.8596 9.51292 24.368 9.33333 26Z" stroke="black" stroke-width="2" stroke-linecap="round" stroke-linejoin="round"/>
</svg>
