<svg width="20" height="18" viewBox="0 0 20 18" fill="none" xmlns="http://www.w3.org/2000/svg">
<path d="M1 16V2C1 1.73478 1.10536 1.48043 1.29289 1.29289C1.48043 1.10536 1.73478 1 2 1H18C18.2652 1 18.5196 1.10536 18.7071 1.29289C18.8946 1.48043 19 1.73478 19 2V16C19 16.2652 18.8946 16.5196 18.7071 16.7071C18.5196 16.8946 18.2652 17 18 17H2C1.73478 17 1.48043 16.8946 1.29289 16.7071C1.10536 16.5196 1 16.2652 1 16ZM10 5C9.60444 5 9.21776 5.1173 8.88886 5.33706C8.55996 5.55682 8.30362 5.86918 8.15224 6.23463C8.00087 6.60009 7.96126 7.00222 8.03843 7.39018C8.1156 7.77814 8.30608 8.13451 8.58579 8.41421C8.86549 8.69392 9.22186 8.8844 9.60982 8.96157C9.99778 9.03874 10.3999 8.99913 10.7654 8.84776C11.1308 8.69638 11.4432 8.44004 11.6629 8.11114C11.8827 7.78224 12 7.39556 12 7C12 6.46957 11.7893 5.96086 11.4142 5.58579C11.0391 5.21071 10.5304 5 10 5ZM13 12C13 11.2044 12.6839 10.4413 12.1213 9.87868C11.5587 9.31607 10.7956 9 10 9C9.20435 9 8.44129 9.31607 7.87868 9.87868C7.31607 10.4413 7 11.2044 7 12V13H13V12Z" stroke="black" stroke-width="2" stroke-linecap="round" stroke-linejoin="round"/>
</svg>
