<svg width="32" height="32" viewBox="0 0 32 32" fill="none" xmlns="http://www.w3.org/2000/svg">
<path d="M12 4H25.3333C25.687 4 26.0261 4.14048 26.2761 4.39052C26.5262 4.64057 26.6667 4.97971 26.6667 5.33333V26.6667C26.6667 27.0203 26.5262 27.3594 26.2761 27.6095C26.0261 27.8595 25.687 28 25.3333 28H9.33333C8.97971 28 8.64057 27.8595 8.39052 27.6095C8.14048 27.3594 8 27.0203 8 26.6667V24" stroke="black" stroke-width="2" stroke-linecap="round" stroke-linejoin="round"/>
<path d="M25.3333 10.6666H28M25.3333 16H28M25.3333 21.3333H28M4.38667 12.12L10.9333 18.6666H14.6667V14.9333L8.12 8.38664C7.87076 8.14233 7.53567 8.00549 7.18667 8.00549C6.83766 8.00549 6.50257 8.14233 6.25333 8.38664L4.38667 10.2533C4.14236 10.5025 4.00552 10.8376 4.00552 11.1866C4.00552 11.5356 4.14236 11.8707 4.38667 12.12Z" stroke="black" stroke-width="2" stroke-linecap="round" stroke-linejoin="round"/>
</svg>
