<svg width="32" height="32" viewBox="0 0 32 32" fill="none" xmlns="http://www.w3.org/2000/svg">
<path d="M24 28H5.33333C4.97971 28 4.64057 27.8595 4.39052 27.6095C4.14048 27.3594 4 27.0203 4 26.6667V5.33333C4 4.97971 4.14048 4.64057 4.39052 4.39052C4.64057 4.14048 4.97971 4 5.33333 4H24C24.3536 4 24.6928 4.14048 24.9428 4.39052C25.1929 4.64057 25.3333 4.97971 25.3333 5.33333V26.6667C25.3333 27.0203 25.1929 27.3594 24.9428 27.6095C24.6928 27.8595 24.3536 28 24 28ZM28 9.33333H25.3333V12H28V9.33333ZM28 17.3333H25.3333V20H28V17.3333ZM20 9.33333H9.33333V14.6667H20V9.33333Z" stroke="black" stroke-width="2" stroke-linecap="round" stroke-linejoin="round"/>
</svg>
