<svg width="20" height="21" viewBox="0 0 20 21" fill="none" xmlns="http://www.w3.org/2000/svg">
<path d="M14.0002 9.00351L11.0002 11.0035L9.00021 9.00351L6.00021 11.0035M18.8802 11.4635C18.6497 12.8635 18.0915 14.1892 17.2511 15.3324C16.4107 16.4756 15.3119 17.4039 14.0444 18.0416C12.7769 18.6792 11.3766 19.0082 9.95775 19.0016C8.5389 18.9949 7.14172 18.653 5.88021 18.0035L1.00021 19.0035L2.00021 14.1235C1.34757 12.8574 1.00479 11.4544 1.00005 10.0299C0.995313 8.60548 1.32876 7.20025 1.97296 5.92978C2.61717 4.65932 3.55374 3.55991 4.70566 2.72196C5.85758 1.884 7.19195 1.33144 8.59904 1.10971C10.0061 0.887974 11.4458 1.0034 12.7996 1.44649C14.1533 1.88959 15.3826 2.6477 16.3863 3.65848C17.39 4.66927 18.1395 5.90385 18.573 7.26073C19.0066 8.61761 19.1118 10.058 18.8802 11.4635Z" stroke="black" stroke-width="2" stroke-linecap="round" stroke-linejoin="round"/>
</svg>
