<svg width="65" height="65" viewBox="0 0 65 65" fill="none" xmlns="http://www.w3.org/2000/svg">
<g filter="url(#filter0_d_39_278)">
<circle cx="32.5" cy="32.5" r="22.5" fill="white"/>
</g>
<path d="M42 44L36.8 38.8M39 33.5C39 34.9834 38.5601 36.4334 37.736 37.6668C36.9119 38.9001 35.7406 39.8614 34.3701 40.4291C32.9997 40.9968 31.4917 41.1453 30.0368 40.8559C28.582 40.5665 27.2456 39.8522 26.1967 38.8033C25.1478 37.7544 24.4335 36.418 24.1441 34.9632C23.8547 33.5083 24.0032 32.0003 24.5709 30.6299C25.1386 29.2594 26.0999 28.0881 27.3332 27.264C28.5666 26.4399 30.0166 26 31.5 26C33.4891 26 35.3968 26.7902 36.8033 28.1967C38.2098 29.6032 39 31.5109 39 33.5Z" stroke="black" stroke-width="2" stroke-linecap="round" stroke-linejoin="round"/>
<defs>
<filter id="filter0_d_39_278" x="0" y="0" width="65" height="65" filterUnits="userSpaceOnUse" color-interpolation-filters="sRGB">
<feFlood flood-opacity="0" result="BackgroundImageFix"/>
<feColorMatrix in="SourceAlpha" type="matrix" values="0 0 0 0 0 0 0 0 0 0 0 0 0 0 0 0 0 0 127 0" result="hardAlpha"/>
<feMorphology radius="6" operator="dilate" in="SourceAlpha" result="effect1_dropShadow_39_278"/>
<feOffset/>
<feGaussianBlur stdDeviation="2"/>
<feComposite in2="hardAlpha" operator="out"/>
<feColorMatrix type="matrix" values="0 0 0 0 0 0 0 0 0 0 0 0 0 0 0 0 0 0 0.5 0"/>
<feBlend mode="normal" in2="BackgroundImageFix" result="effect1_dropShadow_39_278"/>
<feBlend mode="normal" in="SourceGraphic" in2="effect1_dropShadow_39_278" result="shape"/>
</filter>
</defs>
</svg>
